<svg xmlns="http://www.w3.org/2000/svg" viewBox="0 0 512 512" role="img" aria-label="Equibets icon">
  <rect width="512" height="512" rx="112" fill="#23432d" />
  <circle cx="256" cy="256" r="176" fill="#fff8e8" />
  <path
    fill="#956d26"
    d="M151 301c32 34 71 51 118 51 39 0 75-11 109-33 8-5 18-2 23 6 5 9 2 19-6 24-39 25-81 38-126 38-56 0-103-20-141-61-7-7-7-18 0-25 6-7 17-7 23 0Z"
  />
  <path
    fill="#23432d"
    d="M164 183c27-30 62-45 105-45 52 0 94 23 125 68 6 8 4 19-4 25-8 5-19 3-25-5-24-35-56-52-96-52-32 0-58 11-79 34l-14 15h62c10 0 18 8 18 18s-8 18-18 18H134c-10 0-18-8-18-18V137c0-10 8-18 18-18s18 8 18 18v64l12-18Z"
  />
  <path
    fill="#23432d"
    d="M302 260h71c10 0 18 8 18 18v104c0 10-8 18-18 18s-18-8-18-18v-63l-11 17c-25 31-60 47-105 47-50 0-91-22-124-66-6-8-4-19 4-25 8-6 19-4 25 4 25 34 57 51 95 51 33 0 60-12 80-36l14-15h-31c-10 0-18-8-18-18s8-18 18-18Z"
  />
</svg>
